<?xml version="1.0" standalone="no"?>
<!DOCTYPE svg PUBLIC "-//W3C//DTD SVG 20010904//EN"
 "http://www.w3.org/TR/2001/REC-SVG-20010904/DTD/svg10.dtd">
<svg version="1.0" xmlns="http://www.w3.org/2000/svg"
 width="4000.000000pt" height="3000.000000pt" viewBox="0 0 4000.000000 3000.000000"
 preserveAspectRatio="xMidYMid meet">

<g transform="translate(0.000000,3000.000000) scale(0.100000,-0.100000)"
fill="#000000" stroke="none">
<path d="M0 15000 l0 -15000 20000 0 20000 0 0 15000 0 15000 -20000 0 -20000
0 0 -15000z m10436 14653 c26 -11 27 -12 6 -13 -14 0 -29 -11 -41 -31 l-19
-30 -6 25 c-4 16 -16 28 -32 32 l-25 6 30 19 c19 12 31 27 32 41 1 21 2 20 14
-7 7 -16 26 -35 41 -42z m18912 -95 c8 -10 25 -18 36 -18 16 0 13 -4 -14 -18
-21 -10 -37 -27 -40 -42 l-6 -25 -8 23 c-4 13 -21 32 -38 41 l-29 19 26 6 c18
5 30 17 38 39 9 26 12 28 15 12 2 -11 11 -28 20 -37z m-19964 -111 c28 -14 29
-16 8 -16 -14 -1 -29 -13 -41 -32 l-19 -30 -6 25 c-3 14 -17 28 -33 34 l-28
10 27 10 c17 7 30 22 35 39 l7 28 10 -26 c5 -15 23 -34 40 -42z m11120 -2 c4
-15 16 -27 31 -31 14 -3 25 -10 25 -14 0 -4 -11 -11 -25 -14 -15 -4 -27 -16
-31 -31 -8 -31 -16 -32 -29 -2 -6 12 -20 26 -32 32 -13 5 -23 12 -23 15 0 3
10 10 23 15 12 6 26 20 32 33 13 29 21 28 29 -3z m-10066 -87 c8 -10 22 -18
31 -18 9 0 2 -9 -16 -20 -21 -12 -33 -28 -34 -42 -1 -20 -3 -18 -15 9 -9 21
-24 35 -40 39 l-26 7 29 12 c19 8 33 23 38 41 7 25 9 26 13 9 2 -11 11 -28 20
-37z m-5035 -186 c12 -11 31 -22 42 -24 16 -4 13 -8 -18 -21 -29 -12 -39 -23
-44 -48 l-6 -32 -16 34 c-10 20 -30 40 -50 50 l-34 16 32 6 c25 5 36 15 48 44
14 32 18 34 21 17 1 -12 13 -31 25 -42z m30668 -82 l31 -13 -30 -13 c-17 -7
-34 -24 -40 -41 -9 -26 -10 -26 -17 -8 -13 32 -37 55 -59 56 -16 0 -14 4 12
15 22 10 37 25 44 47 l12 32 8 -31 c5 -22 17 -35 39 -44z m485 -6 l26 -7 -30
-13 c-20 -8 -34 -22 -38 -40 l-7 -26 -13 30 c-8 20 -22 34 -40 38 l-26 7 30
13 c20 8 34 22 38 40 l7 26 13 -30 c8 -20 22 -34 40 -38z m-1666 -30 c0 -8 15
-21 33 -29 27 -12 28 -14 9 -15 -14 0 -29 -11 -41 -31 l-19 -30 -6 25 c-4 16
-16 28 -32 32 l-25 6 30 19 c17 10 31 26 31 34 0 9 5 13 10 10 6 -3 10 -13 10
-21z m-9043 -116 c10 -8 32 -20 48 -25 l30 -10 -31 -7 c-40 -9 -64 -35 -73
-78 l-7 -33 -15 45 c-12 39 -20 47 -59 62 -25 9 -37 17 -27 17 38 2 75 31 88
68 l12 38 9 -31 c4 -17 16 -38 25 -46z m-17010 -21 l26 -14 -27 -7 c-16 -4
-31 -18 -40 -39 -10 -23 -15 -26 -15 -13 -1 27 -30 56 -55 56 -16 1 -14 4 11
15 21 9 35 23 39 41 l7 27 14 -26 c7 -15 25 -33 40 -40z m7823 -12 c5 -14 22
-30 37 -36 l28 -11 -26 -9 c-14 -5 -33 -24 -42 -42 -13 -26 -16 -28 -16 -11
-1 24 -27 50 -56 57 -17 3 -15 6 13 17 20 7 34 21 38 36 8 30 12 30 24 -1z
m-11812 -160 c12 -5 22 -12 22 -15 0 -3 -10 -10 -22 -15 -12 -6 -25 -21 -29
-35 -4 -14 -7 -19 -8 -12 -1 8 -15 27 -32 43 -23 21 -27 29 -15 29 9 0 25 13
34 30 16 29 17 29 22 7 3 -12 16 -26 28 -32z m18640 -70 c12 -13 46 -29 75
-36 l52 -12 -45 -12 c-80 -21 -104 -45 -125 -125 l-12 -45 -12 52 c-16 65 -48
98 -112 114 l-50 13 53 17 c63 21 94 54 110 116 l11 46 16 -52 c9 -29 26 -63
39 -76z m5797 93 c8 -25 18 -35 43 -43 35 -10 43 -25 14 -25 -24 0 -62 -36
-62 -59 0 -33 -14 -32 -24 1 -7 22 -22 38 -43 48 -37 17 -43 30 -14 30 21 0
61 44 61 66 0 26 16 14 25 -18z m-22257 -36 l27 -10 -27 -10 c-17 -7 -30 -22
-34 -38 l-7 -26 -12 29 c-7 17 -23 33 -36 37 l-24 7 28 11 c17 6 30 20 34 36
l6 27 9 -27 c5 -15 21 -31 36 -36z m15843 -68 c13 -14 43 -30 66 -37 43 -11
58 -27 26 -27 -10 0 -36 -9 -59 -19 -31 -14 -45 -28 -57 -60 -10 -23 -17 -51
-17 -62 0 -11 -4 -17 -10 -14 -5 3 -10 15 -10 25 0 59 -71 130 -130 130 -11 0
-20 5 -20 10 0 6 7 10 15 10 8 0 33 7 55 16 42 17 80 70 80 112 0 38 14 31 25
-13 7 -25 23 -57 36 -71z m-710 -60 c12 -13 37 -27 56 -30 18 -3 33 -10 33
-14 0 -4 -15 -11 -33 -14 -43 -8 -75 -42 -91 -97 l-13 -42 -11 46 c-13 50 -48
85 -94 94 -16 3 -28 9 -28 13 0 4 12 10 28 13 46 9 81 44 94 94 l11 46 13 -42
c7 -24 23 -54 35 -67z m-20830 2 l24 -7 -22 -9 c-12 -5 -28 -21 -36 -36 l-14
-27 -7 26 c-4 17 -15 29 -32 33 l-25 6 30 19 c20 12 31 27 31 41 1 20 3 19 14
-8 8 -17 24 -34 37 -38z m4069 12 c0 -4 15 -14 33 -22 25 -11 28 -15 11 -15
-22 -1 -46 -23 -59 -56 -7 -19 -8 -18 -14 5 -4 14 -20 32 -39 41 l-32 17 30
12 c18 8 33 22 37 38 6 24 7 24 19 7 8 -11 14 -22 14 -27z m8117 -83 l32 -11
-30 -11 c-19 -7 -35 -23 -42 -42 l-11 -30 -13 30 c-8 18 -25 35 -43 42 l-29
11 32 11 c24 7 35 19 42 42 l9 33 11 -33 c7 -23 19 -35 42 -42z m3985 -42 c7
-6 27 -15 43 -21 26 -9 27 -11 7 -11 -30 -1 -72 -43 -73 -73 0 -20 -2 -19 -11
7 -15 43 -25 53 -61 61 l-32 7 30 10 c42 14 53 24 61 60 l7 32 9 -31 c4 -17
14 -36 20 -41z m-14229 17 c3 -11 15 -24 27 -28 l22 -8 -26 -17 c-14 -10 -26
-24 -26 -33 0 -9 -11 -3 -33 18 -31 30 -32 34 -14 41 10 4 21 16 24 27 3 11 9
20 13 20 4 0 10 -9 13 -20z m35418 -95 c21 -7 21 -7 -2 -19 -13 -6 -28 -21
-34 -33 l-9 -21 -11 21 c-6 12 -20 26 -32 32 -21 11 -20 11 8 27 16 10 29 25
29 35 1 14 4 11 15 -9 8 -15 24 -30 36 -33z m-5804 -55 c14 -1 13 -4 -6 -14
-13 -7 -30 -24 -37 -37 -10 -19 -13 -20 -14 -6 0 9 -14 26 -31 36 l-30 19 25
6 c16 4 28 16 32 32 l6 25 19 -30 c10 -17 27 -31 36 -31z m-12047 -31 c0 -11
13 -34 29 -50 16 -16 39 -29 50 -29 12 0 21 -4 21 -10 0 -5 -9 -10 -21 -10
-11 0 -34 -13 -50 -29 -16 -16 -29 -39 -29 -50 0 -12 -4 -21 -10 -21 -5 0 -10
9 -10 21 0 11 -13 34 -29 50 -16 16 -39 29 -50 29 -12 0 -21 5 -21 10 0 6 9
10 21 10 11 0 34 13 50 29 16 16 29 39 29 50 0 12 5 21 10 21 6 0 10 -9 10
-21z m-20338 -115 c21 -6 21 -7 -4 -20 -15 -8 -30 -23 -33 -35 -7 -21 -7 -21
-19 2 -6 13 -21 28 -33 34 l-21 11 21 9 c12 6 26 20 32 32 l10 23 12 -24 c7
-14 23 -28 35 -32z m236 -2 l27 -10 -27 -10 c-17 -7 -30 -22 -34 -38 l-7 -26
-12 29 c-7 17 -23 33 -36 37 l-24 7 28 11 c17 6 30 20 34 36 l6 27 9 -27 c5
-15 21 -31 36 -36z m10875 -55 c26 -13 28 -16 11 -16 -24 -1 -50 -27 -57 -56
-3 -17 -6 -15 -17 12 -9 24 -21 35 -43 41 l-32 8 33 12 c20 7 36 21 43 39 l11
28 9 -26 c5 -14 24 -33 42 -42z m5579 -31 c12 -9 32 -16 43 -16 13 0 5 -7 -21
-19 -33 -15 -45 -27 -54 -57 l-13 -37 -12 37 c-16 45 -12 40 -55 59 -29 13
-31 16 -12 16 13 1 34 12 47 26 14 13 25 34 26 47 1 20 2 19 15 -9 7 -17 24
-39 36 -47z m-5399 24 c3 -11 19 -26 36 -33 l30 -13 -30 -11 c-17 -7 -33 -21
-36 -32 -3 -12 -9 -21 -13 -21 -4 0 -10 9 -13 21 -3 11 -19 25 -36 32 l-30 11
30 13 c17 7 33 22 36 33 3 11 9 20 13 20 4 0 10 -9 13 -20z m951 -56 l26 -6
-33 -22 c-18 -12 -34 -32 -35 -46 -4 -23 -5 -23 -18 8 -9 22 -24 37 -46 44
l-33 12 34 8 c23 7 36 18 44 38 l11 29 12 -29 c8 -18 23 -32 38 -36z m-243
-56 l32 -11 -34 -11 c-25 -8 -36 -19 -43 -44 l-9 -34 -11 34 c-8 25 -20 36
-45 44 l-34 11 32 11 c22 8 36 22 44 41 l11 30 13 -30 c8 -19 24 -34 44 -41z
m17761 -33 c1 -2 19 -10 38 -18 29 -13 31 -16 12 -16 -29 -1 -72 -44 -72 -71
0 -12 -4 -18 -10 -15 -5 3 -10 15 -10 25 0 23 -45 60 -74 61 -15 0 -9 6 20 19
33 14 45 26 54 56 l13 37 12 -37 c7 -21 15 -39 17 -41z m-10166 -72 c10 -7 33
-16 53 -19 l35 -7 -47 -14 c-47 -13 -62 -30 -77 -82 l-7 -26 -12 30 c-19 51
-27 59 -69 75 l-42 16 42 14 c43 15 50 24 69 75 l11 30 13 -40 c8 -22 22 -45
31 -52z m-3057 -74 c13 -11 29 -19 37 -19 26 0 14 -16 -21 -29 -28 -10 -37
-20 -46 -52 l-12 -40 -13 36 c-13 39 -39 64 -66 65 -29 0 -21 15 15 28 33 12
56 44 58 80 0 9 6 2 13 -17 6 -18 22 -42 35 -52z m-3466 -39 l32 -12 -31 -9
c-24 -7 -36 -19 -47 -47 -9 -20 -16 -30 -16 -21 -1 25 -40 69 -62 69 -10 0
-19 5 -19 10 0 6 9 10 19 10 22 0 61 44 62 69 0 9 7 -1 15 -21 11 -25 26 -40
47 -48z m9342 -93 c9 -29 32 -47 80 -62 17 -5 13 -9 -20 -21 -22 -7 -41 -14
-41 -14 -1 0 -9 -19 -19 -42 l-17 -43 -13 38 c-7 21 -15 41 -18 44 -3 3 -23
11 -44 18 l-38 13 41 17 c40 16 64 47 64 82 0 23 12 8 25 -30z m-17514 -36
l30 -19 -25 -6 c-16 -4 -28 -16 -32 -32 l-6 -25 -19 30 c-12 19 -27 31 -41 32
-20 1 -18 3 9 15 21 9 35 24 40 41 7 27 8 27 11 5 2 -13 17 -31 33 -41z m924
-136 c27 -12 28 -13 7 -14 -14 -1 -29 -13 -41 -32 l-19 -30 -6 25 c-4 17 -16
28 -33 32 l-26 7 26 14 c15 7 30 25 33 40 l7 26 11 -28 c6 -15 25 -33 41 -40z
m9580 -19 l39 -20 -27 -7 c-39 -11 -55 -26 -62 -61 l-7 -30 -18 40 c-14 32
-26 43 -52 50 l-33 8 40 20 c30 14 42 28 49 53 l10 34 11 -34 c8 -24 22 -40
50 -53z m10778 -123 c3 -3 22 -11 43 -18 l38 -13 -32 -7 c-36 -7 -72 -47 -73
-79 0 -15 -4 -11 -13 14 -9 26 -24 41 -56 58 -30 15 -38 22 -23 22 31 0 71 36
78 72 l7 32 13 -38 c7 -21 15 -40 18 -43z m-21757 1 l26 -7 -30 -13 c-20 -8
-34 -22 -38 -40 l-7 -26 -13 30 c-8 21 -23 34 -41 39 l-28 7 25 6 c15 3 31 18
40 36 l15 31 12 -28 c7 -17 22 -31 39 -35z m3250 -100 l25 -6 -30 -19 c-20
-12 -31 -27 -31 -41 -1 -20 -3 -19 -14 8 -8 19 -26 36 -43 42 -25 9 -26 10 -5
11 14 1 29 12 40 31 l17 30 8 -25 c5 -14 19 -28 33 -31z m5268 -203 c6 -8 29
-22 51 -32 38 -17 38 -18 12 -18 -35 -1 -75 -41 -84 -82 l-6 -31 -13 39 c-16
45 -46 73 -83 74 -25 1 -24 1 9 16 49 21 68 40 76 77 l7 31 10 -30 c5 -16 15
-36 21 -44z m12229 -46 c18 -7 41 -17 52 -21 17 -6 15 -8 -13 -14 -44 -10 -78
-44 -90 -89 l-9 -36 -12 43 c-12 44 -56 82 -93 82 -30 0 -20 17 14 24 43 9 66
32 79 80 l12 41 14 -48 c11 -38 20 -51 46 -62z m-15233 9 l35 -12 -37 -15
c-28 -12 -39 -24 -46 -49 l-9 -33 -16 37 c-10 25 -24 39 -41 44 -14 3 -26 10
-26 14 0 4 12 11 26 14 17 5 30 19 41 44 l15 37 12 -35 c8 -27 19 -38 46 -46z
m20914 -12 l31 -9 -37 -16 c-28 -12 -38 -23 -44 -49 l-7 -33 -11 34 c-7 24
-19 38 -45 49 l-36 15 32 9 c24 6 35 17 44 43 l13 35 14 -35 c10 -26 23 -37
46 -43z m-25504 13 c0 -8 14 -24 31 -34 l30 -19 -25 -6 c-16 -4 -28 -16 -32
-31 -3 -14 -10 -25 -14 -25 -4 0 -11 11 -14 25 -4 15 -16 27 -32 31 l-25 6 30
19 c17 10 31 26 31 34 0 8 5 15 10 15 6 0 10 -7 10 -15z m14174 -95 c7 -16 27
-30 55 -39 l44 -14 -38 -13 c-48 -16 -61 -29 -78 -79 l-14 -40 -7 36 c-8 43
-39 74 -85 86 l-34 9 42 12 c44 14 80 57 82 97 0 17 2 16 11 -5 5 -14 15 -36
22 -50z m-17672 -101 c21 0 20 -2 -5 -11 -17 -6 -35 -23 -43 -42 -11 -27 -13
-28 -14 -8 0 14 -11 29 -31 41 l-30 19 25 6 c16 4 28 16 32 32 l6 25 19 -30
c12 -19 27 -31 41 -32z m8438 -55 c39 -8 38 -20 -1 -28 -23 -4 -34 -15 -47
-45 l-17 -39 -10 32 c-6 20 -21 36 -42 46 -18 8 -33 17 -33 20 0 3 15 12 33
20 21 10 35 26 41 47 l10 32 17 -40 c14 -30 25 -41 49 -45z m-5270 -5 l25 -6
-28 -12 c-17 -6 -34 -24 -40 -41 l-11 -29 -13 29 c-6 17 -25 35 -40 41 l-28
12 25 6 c14 4 31 20 40 37 l14 30 16 -30 c8 -17 26 -33 40 -37z m13237 -121
c9 -10 31 -22 51 -29 l35 -12 -38 -13 c-47 -16 -53 -22 -70 -70 l-14 -39 -6
30 c-11 52 -48 84 -97 86 -17 0 -14 4 16 15 53 19 64 30 78 77 l12 40 9 -34
c5 -19 16 -42 24 -51z m15390 -20 c9 -10 26 -18 37 -19 16 0 13 -4 -13 -15
-20 -9 -37 -26 -44 -44 l-11 -29 -13 30 c-8 19 -24 34 -45 41 l-33 12 32 8
c24 6 35 17 45 44 12 33 13 34 21 12 4 -12 15 -31 24 -40z m-11009 -38 c14
-28 27 -38 64 -50 27 -8 48 -18 48 -21 0 -4 -16 -10 -36 -14 -47 -8 -80 -42
-94 -96 l-12 -44 -16 50 c-18 54 -65 95 -108 95 -13 0 -24 5 -24 10 0 6 11 10
24 10 42 0 90 41 106 93 13 42 16 44 23 24 5 -12 16 -38 25 -57z m10274 -2
c24 -12 28 -17 14 -17 -27 -1 -56 -30 -57 -55 0 -17 -3 -15 -17 12 -10 21 -26
35 -46 40 l-31 8 33 12 c23 8 36 21 44 44 l12 33 8 -31 c5 -20 19 -36 40 -46z
m-8132 14 c12 -46 38 -72 82 -82 28 -6 30 -8 13 -14 -62 -22 -81 -41 -100
-101 -5 -17 -9 -13 -20 20 -16 44 -47 75 -76 75 -10 0 -21 5 -24 10 -3 6 1 10
9 10 47 0 96 51 96 100 0 31 8 24 20 -18z m11025 -13 c304 -101 560 -262 790
-500 171 -176 262 -306 366 -524 130 -272 189 -536 189 -845 0 -309 -59 -573
-189 -845 -103 -216 -195 -347 -361 -519 -181 -187 -350 -310 -572 -415 -271
-129 -545 -191 -848 -191 -313 0 -620 73 -895 213 -144 74 -399 248 -340 233
131 -35 407 -52 570 -37 495 47 919 249 1255 597 158 164 264 316 360 517 131
275 190 537 190 847 0 315 -60 578 -195 855 -108 223 -226 385 -410 564 -105
103 -106 103 -68 97 21 -4 92 -25 158 -47z m-27912 -59 c3 -11 15 -24 27 -28
l22 -8 -26 -17 c-14 -10 -26 -24 -26 -32 0 -8 -4 -15 -10 -15 -5 0 -10 7 -10
15 0 8 -12 22 -26 32 l-26 17 22 8 c12 4 24 17 27 28 3 11 9 20 13 20 4 0 10
-9 13 -20z m6983 -91 c9 -10 32 -21 52 -26 l36 -9 -46 -17 c-41 -16 -49 -24
-64 -64 l-18 -47 -9 35 c-12 46 -33 67 -81 81 -29 8 -35 13 -21 15 66 13 104
50 106 105 0 17 4 13 15 -16 8 -22 21 -47 30 -57z m-14455 -215 c19 -11 20
-13 6 -14 -10 0 -25 -13 -35 -29 -16 -28 -16 -29 -27 -8 -6 12 -20 26 -32 32
-21 11 -20 11 8 27 16 10 29 25 29 35 1 14 3 13 14 -6 7 -13 24 -30 37 -37z
m13592 -44 c9 -11 31 -23 47 -27 34 -6 51 -23 23 -23 -40 0 -82 -38 -96 -87
l-14 -47 -7 36 c-9 50 -40 86 -81 94 -40 7 -38 19 4 27 39 8 67 40 77 85 l7
37 11 -37 c6 -21 19 -47 29 -58z m1721 -4 c9 -15 33 -30 58 -37 l43 -11 -38
-13 c-51 -18 -74 -40 -85 -83 l-9 -37 -11 41 c-14 49 -28 62 -83 78 l-41 12
41 12 c45 14 76 48 87 95 l7 32 7 -32 c4 -18 15 -44 24 -57z m1506 -171 c16
-8 39 -15 52 -16 17 0 13 -4 -17 -15 -50 -18 -63 -31 -79 -79 l-13 -38 -7 35
c-8 42 -28 63 -82 82 -29 11 -33 15 -16 15 45 2 81 29 94 73 l12 41 14 -42 c9
-27 23 -46 42 -56z m5474 -115 c7 -15 29 -31 55 -41 l44 -16 -29 -7 c-49 -12
-73 -34 -85 -78 l-12 -43 -7 30 c-12 55 -29 74 -78 89 -26 8 -39 15 -29 15 56
2 106 50 108 104 0 21 1 21 11 -3 5 -14 15 -36 22 -50z m-9497 -383 c9 -9 34
-22 56 -29 l39 -12 -46 -13 c-47 -14 -64 -33 -76 -88 l-7 -30 -12 43 c-13 45
-55 81 -96 83 -17 0 -16 2 5 11 62 26 70 33 87 76 l17 46 9 -35 c5 -19 16 -42
24 -52z m-1673 -85 c7 -7 31 -19 52 -27 l39 -13 -42 -11 c-47 -13 -70 -38 -80
-91 l-6 -35 -16 50 c-15 47 -20 51 -71 72 -40 16 -48 22 -30 23 44 0 88 35
101 81 l13 41 13 -38 c8 -22 20 -45 27 -52z m-11068 -8 l25 -6 -23 -12 c-12
-6 -28 -22 -34 -35 l-12 -23 -7 22 c-4 12 -21 27 -37 34 l-30 13 26 7 c15 4
32 18 38 32 l12 26 9 -26 c5 -15 19 -29 33 -32z m1855 -48 l24 -7 -28 -11
c-16 -6 -30 -20 -33 -35 l-7 -25 -13 31 c-7 17 -20 31 -29 31 -8 0 -15 5 -15
10 0 6 7 10 16 10 9 0 21 13 27 30 l11 29 12 -28 c6 -15 22 -31 35 -35z
m19272 -13 c3 -3 22 -10 42 -17 l36 -13 -39 -11 c-38 -12 -62 -42 -62 -78 0
-8 -4 -12 -10 -9 -5 3 -10 14 -10 24 0 28 -22 51 -65 66 -22 8 -32 14 -22 15
37 0 75 30 87 66 l13 37 12 -37 c7 -21 15 -40 18 -43z m-5923 48 c0 -29 37
-69 72 -76 l32 -7 -45 -22 c-33 -16 -46 -29 -54 -53 -5 -18 -12 -33 -15 -33
-3 0 -10 15 -15 33 -8 24 -21 37 -54 53 l-45 22 32 7 c35 7 72 47 72 76 0 11
5 19 10 19 6 0 10 -8 10 -19z m12053 -171 c32 -15 37 -20 19 -20 -29 0 -72
-42 -72 -70 0 -12 -4 -18 -10 -15 -5 3 -10 15 -10 25 0 23 -45 60 -74 61 -15
0 -11 4 14 13 25 9 41 24 54 51 l20 40 8 -33 c7 -26 18 -38 51 -52z m-2616
-10 c37 -17 43 -30 14 -30 -24 0 -61 -45 -62 -74 0 -15 -6 -8 -19 22 -15 33
-26 44 -50 48 -39 8 -38 20 1 28 24 5 34 14 47 47 l16 40 10 -33 c7 -22 22
-38 43 -48z m-8920 -27 c9 -7 25 -13 35 -13 29 0 21 -17 -12 -23 -30 -6 -60
-47 -60 -84 -1 -10 -11 2 -23 27 -17 34 -30 47 -54 55 -18 5 -33 12 -33 15 0
3 15 10 33 15 24 8 37 21 51 52 l20 42 13 -37 c7 -20 20 -42 30 -49z m-5250
-15 c9 -10 32 -21 52 -24 l36 -7 -45 -19 c-54 -23 -49 -18 -65 -65 -11 -32
-14 -35 -20 -18 -17 53 -32 70 -75 84 l-45 15 33 7 c43 9 68 33 83 78 l12 36
10 -35 c5 -19 16 -43 24 -52z m614 3 l30 -19 -25 -6 c-16 -4 -28 -16 -32 -32
l-6 -25 -19 30 c-12 20 -27 31 -41 31 -20 1 -18 3 9 15 21 9 35 24 40 42 7 26
8 27 11 5 2 -13 17 -31 33 -41z m10458 -40 c11 -6 30 -11 43 -12 16 0 10 -5
-22 -17 -38 -15 -47 -24 -62 -62 -13 -36 -17 -40 -17 -20 -1 37 -26 67 -68 81
l-36 12 38 13 c42 14 53 26 62 69 l6 29 18 -41 c10 -23 27 -46 38 -52z m-6342
-23 c10 -8 32 -20 48 -25 l30 -10 -32 -7 c-37 -8 -73 -48 -74 -80 0 -15 -6
-10 -18 19 -18 39 -51 64 -89 66 -9 0 2 7 26 16 41 14 48 22 67 78 7 18 9 16
16 -11 5 -17 17 -38 26 -46z m18299 2 c11 0 7 -8 -15 -29 -17 -16 -31 -35 -32
-43 -1 -7 -4 -2 -8 12 -4 14 -17 29 -29 35 -28 12 -28 18 1 30 12 6 24 21 25
34 4 23 4 23 23 -8 10 -17 26 -31 35 -31z m4788 34 c5 -17 19 -30 44 -41 l37
-15 -35 -12 c-27 -8 -38 -19 -46 -46 l-12 -35 -15 37 c-12 28 -24 39 -49 46
l-33 9 37 16 c25 10 39 24 44 41 3 14 10 26 14 26 4 0 11 -12 14 -26z m-28634
-13 c0 -31 39 -70 82 -83 l40 -12 -46 -13 c-47 -14 -55 -24 -82 -98 -6 -17 -8
-15 -14 13 -10 45 -46 80 -89 88 l-36 7 40 14 c52 18 73 39 81 79 6 34 24 38
24 5z m8671 -88 l32 -6 -34 -16 c-19 -9 -40 -30 -49 -49 l-16 -33 -12 35 c-10
27 -22 38 -50 47 l-37 12 28 8 c39 11 55 26 62 61 l7 30 19 -41 c14 -33 25
-43 50 -48z m5128 19 c6 -12 26 -25 44 -30 l32 -8 -40 -20 c-27 -13 -42 -29
-50 -53 l-11 -34 -16 42 c-13 33 -23 42 -47 47 -36 7 -52 24 -23 24 30 0 70
37 78 73 7 32 7 32 14 6 4 -14 12 -35 19 -47z m-14055 -52 c7 -15 29 -31 56
-42 26 -9 36 -17 25 -17 -37 -2 -85 -39 -92 -71 -6 -33 -23 -51 -23 -25 0 37
-30 73 -72 88 l-43 15 30 7 c52 11 84 48 86 97 0 23 0 23 11 -2 5 -14 15 -36
22 -50z m10999 -7 c3 -3 22 -11 43 -18 l38 -13 -32 -7 c-35 -7 -72 -47 -72
-77 0 -11 -4 -16 -10 -13 -5 3 -10 14 -10 24 0 22 -36 55 -75 69 -18 6 -23 11
-12 11 35 2 77 31 83 59 11 45 16 46 29 8 7 -21 15 -40 18 -43z m-3438 -37
l40 -20 -32 -8 c-35 -9 -63 -41 -64 -73 0 -15 -5 -11 -16 15 -17 38 -39 59
-65 60 -30 0 -20 17 13 24 24 5 34 14 47 47 l16 40 10 -33 c8 -24 22 -39 51
-52z m-12364 -42 l34 -12 -37 -15 c-28 -12 -39 -24 -46 -49 l-9 -33 -7 33 c-6
26 -16 37 -44 49 l-37 16 32 9 c24 6 35 17 45 44 l12 35 12 -33 c8 -24 20 -36
45 -44z m11662 -44 c32 -14 37 -19 19 -19 -30 -1 -72 -43 -73 -73 0 -18 -4
-14 -19 18 -18 42 -34 53 -73 55 -18 0 -16 3 8 11 41 14 62 34 70 66 l8 27 9
-33 c7 -26 18 -37 51 -52z m2712 -22 c7 -24 21 -39 53 -55 l43 -21 -31 -7
c-33 -7 -70 -47 -70 -76 0 -11 -4 -19 -10 -19 -5 0 -10 9 -10 19 0 28 -33 64
-71 77 l-34 11 32 7 c36 8 73 48 73 77 0 30 15 22 25 -13z m-15144 -175 l31
-6 -31 -13 c-19 -8 -37 -26 -45 -45 l-13 -31 -6 31 c-5 22 -15 35 -39 45 -23
10 -27 15 -14 15 27 1 56 30 57 55 0 16 4 14 15 -12 10 -24 23 -34 45 -39z
m24735 -54 c9 -10 32 -21 50 -25 19 -3 34 -10 34 -14 0 -4 -15 -11 -34 -14
-42 -8 -64 -32 -80 -87 l-13 -42 -12 47 c-9 35 -19 51 -44 66 -17 11 -40 20
-49 20 -10 0 -18 5 -18 10 0 6 8 10 18 10 9 0 32 9 49 20 25 15 35 31 44 66
l12 47 13 -42 c7 -23 20 -51 30 -62z m-10416 12 c0 -23 27 -48 64 -57 l28 -7
-37 -12 c-44 -16 -39 -12 -58 -55 -13 -29 -16 -31 -16 -12 -1 30 -44 72 -73
72 -17 0 -13 5 20 20 33 15 44 26 48 49 7 32 24 33 24 2z m-11439 -140 l30
-19 -25 -6 c-17 -4 -28 -16 -32 -33 l-7 -26 -14 27 c-8 15 -24 31 -36 36 -22
8 -22 8 5 19 17 6 30 21 35 38 7 27 8 27 11 5 2 -13 17 -31 33 -41z m24855 9
c8 0 14 -4 14 -10 0 -5 -7 -10 -15 -10 -8 0 -22 -12 -32 -26 l-17 -26 -8 22
c-4 12 -17 24 -28 27 -26 7 -26 19 1 26 11 3 23 16 26 28 6 22 6 22 25 -5 11
-14 26 -26 34 -26z m-21925 -38 c10 -27 65 -62 99 -63 19 -1 14 -4 -19 -15
-57 -18 -75 -35 -91 -86 l-12 -42 -17 49 c-15 46 -20 52 -69 71 l-54 21 37 7
c48 9 82 44 91 92 7 37 7 38 17 14 5 -14 13 -35 18 -48z m20576 -14 c9 -10 32
-21 52 -24 l36 -7 -43 -15 c-42 -14 -71 -49 -73 -89 0 -11 -5 -6 -11 12 -15
43 -44 72 -81 80 l-32 7 26 8 c50 15 68 31 81 72 l12 41 9 -34 c5 -19 16 -42
24 -51z m-12480 -21 l36 -14 -31 -6 c-23 -5 -37 -17 -51 -44 -16 -30 -20 -34
-21 -16 0 24 -43 63 -69 63 -9 0 0 8 19 18 24 11 38 27 45 50 l9 32 14 -34 c9
-24 24 -39 49 -49z m3918 -21 l40 -20 -31 -8 c-38 -10 -49 -22 -61 -68 l-10
-35 -7 32 c-8 37 -48 73 -80 74 -15 0 -9 6 20 19 33 14 45 26 54 56 l13 38 11
-35 c8 -25 22 -39 51 -53z m-2348 -18 c9 -10 31 -22 51 -29 l35 -12 -38 -13
c-47 -16 -53 -22 -70 -70 l-14 -39 -6 30 c-11 52 -48 84 -97 86 -17 0 -14 4
16 15 53 19 64 30 78 77 l12 40 9 -34 c5 -19 16 -42 24 -51z m7969 -50 l34
-12 -34 -14 c-24 -9 -39 -24 -48 -48 l-14 -34 -12 34 c-10 26 -22 38 -48 48
l-34 12 35 14 c24 10 38 24 47 48 l12 34 14 -35 c10 -24 24 -38 48 -47z m3585
-27 l30 -19 -25 -6 c-16 -4 -28 -16 -32 -32 l-6 -25 -19 30 c-12 20 -27 31
-41 31 -20 1 -18 3 9 15 21 9 35 24 40 42 7 26 8 27 11 5 2 -13 17 -31 33 -41z
m-2978 -105 l38 -10 -43 -16 c-37 -13 -45 -21 -57 -60 l-15 -45 -6 31 c-10 44
-18 54 -64 74 -32 15 -36 19 -18 19 30 1 82 53 82 83 1 18 6 13 23 -22 18 -37
29 -47 60 -54z m-11219 29 c4 -16 20 -32 41 -42 l35 -17 -32 -10 c-25 -8 -35
-19 -43 -43 -10 -36 -25 -44 -25 -13 0 26 -38 60 -69 60 -22 0 -20 3 16 20 29
13 44 27 49 44 8 33 20 33 28 1z m3683 -66 l38 -12 -35 -12 c-26 -8 -41 -22
-57 -55 -16 -30 -23 -38 -23 -23 0 30 -36 71 -70 78 l-31 7 43 21 c32 17 45
30 52 56 l10 34 17 -40 c14 -32 25 -44 56 -54z m-5564 -89 c32 -14 37 -19 19
-19 -29 -1 -72 -43 -72 -71 0 -12 -4 -18 -10 -15 -5 3 -10 15 -10 25 0 23 -45
60 -74 61 -15 0 -9 6 20 19 30 13 45 27 54 52 l12 33 10 -33 c7 -26 19 -38 51
-52z m-14133 0 c0 -22 45 -60 72 -60 28 0 13 -16 -22 -23 -29 -6 -35 -15 -55
-72 -7 -18 -8 -17 -16 9 -10 36 -37 66 -60 66 -10 0 -21 5 -24 10 -3 6 3 10
15 10 27 0 70 43 70 70 0 12 5 18 10 15 6 -3 10 -15 10 -25z m13785 -118 c2
-2 21 -10 42 -17 21 -8 30 -14 21 -15 -35 0 -67 -24 -81 -58 l-14 -36 -8 33
c-5 26 -16 37 -47 51 l-39 17 28 8 c38 9 51 21 59 57 l6 31 15 -33 c7 -19 15
-36 18 -38z m-3091 15 c5 -21 18 -33 48 -47 l40 -18 -31 -7 c-34 -7 -61 -38
-62 -70 0 -15 -4 -13 -15 12 -15 36 -49 63 -79 64 -15 0 -12 3 10 11 43 15 63
35 71 72 4 17 8 27 10 21 1 -5 5 -23 8 -38z m21373 -43 l25 -7 -31 -13 c-17
-7 -31 -20 -31 -29 0 -8 -4 -15 -10 -15 -5 0 -10 7 -10 15 0 9 -14 22 -31 29
-31 13 -31 13 -7 19 14 4 30 19 38 34 l13 28 9 -28 c6 -16 19 -29 35 -33z
m-20635 -51 c7 -6 27 -15 43 -20 l30 -10 -32 -7 c-36 -8 -63 -38 -64 -71 0
-13 -5 -8 -15 17 -12 27 -25 41 -50 50 l-34 12 34 14 c26 10 38 23 47 50 l12
37 9 -31 c4 -17 14 -36 20 -41z m-9029 -52 c8 -39 39 -70 77 -78 31 -6 42 -23
15 -23 -30 0 -72 -29 -83 -57 -5 -15 -13 -37 -17 -48 -7 -17 -9 -15 -17 15
-13 47 -44 78 -85 86 -38 7 -45 24 -9 24 36 0 84 45 92 86 7 39 19 37 27 -5z
m15304 -68 c9 -7 25 -13 35 -13 29 0 21 -17 -12 -23 -30 -6 -60 -47 -60 -84
-1 -10 -11 2 -23 27 -17 34 -30 47 -54 55 -18 5 -33 12 -33 15 0 3 15 10 33
15 24 8 37 21 51 52 l20 42 13 -37 c7 -20 20 -42 30 -49z m-8597 -18 c16 -8
36 -15 45 -15 9 0 13 -4 10 -10 -3 -5 -14 -10 -24 -10 -29 0 -60 -31 -75 -73
l-13 -38 -12 42 c-10 35 -19 44 -59 62 -45 19 -46 21 -21 27 49 14 68 31 81
72 l12 41 14 -42 c9 -27 23 -46 42 -56z m5789 -26 c13 -11 33 -19 45 -19 15 0
9 -6 -20 -19 -33 -15 -45 -27 -54 -57 l-13 -37 -13 39 c-8 21 -14 40 -14 41 0
1 -17 7 -37 14 l-38 12 34 12 c39 13 61 39 62 74 0 24 2 23 13 -8 6 -18 22
-42 35 -52z m7302 -26 l32 -6 -34 -16 c-20 -10 -40 -30 -50 -50 l-16 -34 -6
32 c-5 25 -16 36 -49 51 -33 15 -37 20 -20 20 29 0 72 42 73 72 0 18 5 13 19
-20 15 -34 26 -44 51 -49z m-16351 6 l25 -6 -28 -11 c-15 -7 -32 -23 -39 -37
l-11 -25 -11 23 c-7 12 -25 28 -41 36 l-30 15 25 6 c15 3 31 18 40 36 l14 30
16 -30 c8 -17 26 -33 40 -37z m9865 -48 c4 -7 26 -21 49 -31 32 -15 36 -19 18
-19 -30 -1 -82 -53 -83 -83 0 -18 -4 -15 -18 17 -18 39 -52 64 -89 66 -9 0 0
7 22 15 44 16 62 36 72 79 l7 30 7 -31 c4 -17 10 -36 15 -43z m21113 -139 l27
-10 -27 -10 c-17 -7 -30 -22 -34 -38 l-7 -26 -12 29 c-7 17 -23 33 -36 37
l-24 6 25 13 c14 7 29 22 35 35 l10 22 8 -24 c5 -14 20 -29 35 -34z m-30761
-308 l25 -7 -30 -13 c-18 -7 -32 -22 -35 -36 l-4 -23 -8 24 c-4 13 -21 29 -38
36 l-29 12 26 7 c16 4 31 17 38 34 l10 27 10 -28 c6 -16 20 -30 35 -33z
m19296 -3 c6 -7 22 -17 36 -22 l24 -10 -33 -17 c-21 -10 -37 -27 -41 -42 l-6
-25 -11 25 c-12 30 -29 46 -57 53 -17 3 -15 6 12 16 21 8 36 23 44 44 10 27
13 29 16 12 3 -11 10 -26 16 -34z m-25293 3 c0 -8 14 -21 32 -28 30 -13 30
-14 9 -21 -12 -4 -31 -21 -42 -38 -17 -29 -19 -30 -19 -9 0 14 -11 29 -31 41
l-30 19 25 6 c16 4 28 16 32 31 6 26 24 25 24 -1z m23871 -226 l32 -11 -34
-11 c-25 -8 -36 -19 -43 -44 l-9 -34 -11 34 c-8 25 -20 36 -45 44 l-34 11 32
11 c22 8 36 22 44 41 l11 30 13 -30 c8 -19 24 -34 44 -41z m-21083 -100 c8
-10 25 -18 36 -18 16 0 13 -4 -14 -18 -23 -11 -36 -25 -38 -42 -4 -24 -4 -23
-17 7 -9 21 -23 35 -41 39 l-26 7 30 13 c20 8 34 23 39 41 6 23 8 25 11 8 2
-11 11 -28 20 -37z m15345 -55 c8 -8 31 -20 51 -27 l37 -13 -41 -12 c-43 -13
-79 -56 -81 -96 0 -12 -6 -4 -15 20 -18 50 -29 61 -79 79 -24 9 -32 15 -20 15
40 2 83 38 96 81 l12 41 13 -37 c7 -20 19 -43 27 -51z m296 -31 c32 -14 33
-16 14 -20 -25 -4 -63 -46 -63 -71 -1 -9 -7 -2 -14 14 -15 35 -33 51 -61 57
-16 4 -13 7 17 20 27 12 38 24 44 50 l7 33 11 -34 c7 -24 19 -38 45 -49z
m-14431 -32 l27 -13 -27 -9 c-16 -6 -29 -19 -33 -36 l-7 -27 -13 33 c-8 17
-21 32 -30 32 -8 0 -15 5 -15 10 0 6 7 10 16 10 9 0 21 14 27 30 l12 31 8 -24
c4 -13 20 -30 35 -37z m-4029 -53 l30 -11 -30 -13 c-18 -8 -35 -25 -42 -42
l-11 -30 -13 30 c-7 17 -25 35 -42 42 l-30 13 30 11 c19 7 35 23 42 42 l11 30
13 -30 c8 -18 25 -35 42 -42z m26833 -72 c27 -11 29 -14 11 -15 -23 0 -62 -42
-64 -69 0 -9 -5 -1 -10 17 -7 23 -19 37 -40 46 l-31 13 32 13 c22 9 33 22 37
42 l6 30 13 -31 c8 -19 26 -37 46 -46z m-2091 -72 l31 -6 -31 -13 c-19 -8 -37
-26 -45 -45 l-13 -31 -6 30 c-4 20 -15 33 -37 42 l-32 13 31 13 c20 8 33 23
37 41 l7 28 14 -33 c10 -24 21 -34 44 -39z m-6051 -42 c0 -31 39 -70 82 -83
l40 -12 -46 -13 c-45 -13 -76 -48 -76 -88 0 -8 -4 -15 -10 -15 -5 0 -10 7 -10
15 0 40 -31 75 -76 88 l-46 13 40 12 c43 13 82 52 82 83 0 11 5 19 10 19 6 0
10 -8 10 -19z m-961 -81 l24 -5 -27 -13 c-15 -6 -30 -20 -34 -30 -6 -17 -10
-15 -40 15 -21 22 -27 33 -18 33 9 0 23 11 32 25 l17 26 11 -23 c6 -12 22 -25
35 -28z m13258 -21 l28 -11 -32 -13 c-21 -9 -35 -23 -39 -40 l-6 -25 -17 32
c-10 20 -25 34 -39 36 -22 3 -21 5 10 26 19 12 34 32 36 46 4 23 5 23 18 -8 8
-19 25 -37 41 -43z m-22781 -40 c9 -10 32 -22 52 -27 l37 -9 -41 -11 c-49 -14
-62 -28 -78 -84 l-13 -42 -7 35 c-9 51 -32 77 -79 90 l-42 11 38 13 c51 18 65
31 79 77 l12 40 13 -38 c7 -21 20 -45 29 -55z m1574 -58 c0 -28 23 -51 65 -66
33 -11 37 -15 20 -20 -65 -21 -69 -25 -90 -90 -5 -17 -9 -13 -20 20 -15 42
-38 65 -66 65 -30 0 -30 17 0 23 36 8 60 32 68 68 6 30 23 30 23 0z m-9873
-133 c8 -9 25 -19 37 -21 21 -3 21 -4 1 -12 -33 -13 -55 -37 -56 -59 0 -17 -3
-15 -17 12 -9 18 -26 35 -39 38 -30 8 -29 20 3 28 17 5 29 18 37 39 9 26 12
28 15 12 2 -11 11 -28 19 -37z m7771 -30 c13 -24 27 -36 57 -44 l40 -12 -30
-7 c-37 -9 -75 -43 -75 -66 0 -10 -4 -21 -10 -24 -5 -3 -10 2 -10 13 0 30 -36
69 -72 77 l-33 7 35 10 c40 10 70 41 70 71 0 25 6 19 28 -25z m16392 -39 l25
-6 -28 -12 c-17 -6 -34 -24 -40 -41 l-11 -30 -16 32 c-9 20 -24 34 -38 36 -30
4 -28 18 4 26 16 4 29 17 36 37 l10 30 17 -33 c9 -19 27 -35 41 -39z m10316 4
c26 -11 27 -12 6 -13 -14 0 -29 -11 -41 -31 l-19 -30 -6 25 c-4 16 -16 28 -32
32 l-25 6 30 19 c19 12 31 27 32 41 1 21 2 20 14 -7 7 -16 26 -35 41 -42z
m-33495 -39 c8 -7 30 -15 49 -19 l35 -8 -35 -10 c-46 -12 -59 -24 -81 -72 -10
-22 -18 -32 -18 -22 -2 41 -31 76 -73 89 l-41 12 42 14 c41 14 70 49 72 89 0
10 8 0 18 -22 10 -22 24 -45 32 -51z m14984 -19 c27 -12 28 -13 7 -14 -14 -1
-29 -13 -41 -32 l-19 -30 -6 25 c-4 17 -16 28 -33 32 l-26 7 26 14 c15 7 30
25 33 40 l7 26 11 -28 c6 -15 25 -33 41 -40z m-3740 -8 c9 -29 31 -46 80 -63
16 -5 13 -8 -20 -18 -38 -11 -54 -29 -70 -81 -6 -17 -9 -14 -20 18 -16 47 -15
46 -62 62 -32 11 -35 14 -18 20 52 16 70 32 79 68 11 41 16 40 31 -6z m2259 0
c5 -21 18 -33 49 -47 32 -14 37 -19 19 -19 -29 -1 -72 -43 -73 -73 0 -19 -3
-17 -16 12 -19 43 -14 39 -58 55 l-37 12 28 7 c39 10 62 32 70 70 4 17 8 27
10 21 1 -5 5 -23 8 -38z m-9181 12 c3 -11 15 -23 26 -26 12 -3 21 -9 21 -13 0
-4 -9 -10 -21 -13 -11 -3 -23 -15 -26 -26 -3 -12 -9 -21 -13 -21 -4 0 -10 9
-13 21 -3 11 -15 23 -26 26 -12 3 -21 9 -21 13 0 4 9 10 21 13 11 3 23 15 26
26 3 12 9 21 13 21 4 0 10 -9 13 -21z m25336 -86 l26 -6 -27 -9 c-15 -5 -31
-22 -39 -41 -13 -31 -13 -31 -19 -7 -3 14 -19 32 -36 40 l-30 16 30 14 c20 10
32 24 35 40 3 25 4 24 19 -8 10 -20 26 -35 41 -39z m-8042 -65 c8 -9 25 -19
37 -21 18 -3 17 -5 -11 -16 -23 -9 -36 -22 -42 -44 l-9 -32 -12 32 c-7 21 -22
36 -43 44 -27 10 -29 13 -12 16 28 7 45 23 58 53 9 23 11 23 15 5 2 -11 11
-28 19 -37z m-3790 -80 c9 -10 32 -23 52 -29 l36 -12 -35 -10 c-47 -12 -68
-33 -76 -76 l-7 -36 -14 39 c-18 53 -29 64 -69 72 -34 6 -38 24 -5 24 31 0 68
38 76 77 l8 38 9 -35 c5 -19 17 -43 25 -52z m1965 -43 c2 -11 18 -27 36 -35
l32 -16 -30 -11 c-18 -7 -34 -23 -41 -40 l-11 -28 -13 33 c-11 24 -22 34 -46
39 l-32 6 37 15 c28 11 38 22 43 44 6 31 19 27 25 -7z m841 -76 c28 -11 29
-13 11 -16 -26 -5 -50 -30 -56 -58 -4 -18 -6 -18 -15 5 -13 30 -30 46 -58 53
-17 3 -15 6 12 16 21 8 36 23 43 44 l12 32 9 -32 c6 -22 19 -35 42 -44z
m-9996 -81 c9 -10 32 -21 52 -24 l36 -7 -39 -14 c-53 -18 -64 -29 -77 -77 -7
-22 -13 -36 -14 -31 -2 6 -6 22 -9 37 -8 35 -39 64 -79 72 l-32 7 40 14 c45
16 63 37 72 80 l7 30 14 -35 c7 -19 21 -43 29 -52z m11390 53 c7 -21 20 -31
44 -37 l34 -7 -34 -11 c-23 -7 -38 -19 -45 -38 -13 -35 -19 -35 -33 1 -7 21
-20 31 -44 37 l-34 7 34 11 c23 7 38 19 45 38 13 35 19 35 33 -1z m-23809 -33
c8 -10 25 -18 36 -18 16 0 13 -4 -14 -18 -20 -10 -37 -27 -41 -42 l-6 -25 -12
28 c-6 16 -24 34 -42 41 l-31 13 30 6 c21 4 33 15 43 39 11 27 14 29 17 13 2
-11 11 -28 20 -37z m33640 -75 l27 -6 -27 -9 c-15 -5 -31 -21 -37 -36 l-10
-27 -7 24 c-4 13 -20 29 -37 36 l-29 12 26 7 c16 4 31 17 38 34 l10 27 10 -28
c6 -17 20 -30 36 -34z m-4268 11 c0 -8 14 -21 31 -28 l31 -13 -26 -7 c-16 -4
-31 -17 -38 -34 l-10 -27 -10 28 c-6 17 -20 30 -36 34 l-27 6 28 10 c16 5 29
18 33 33 6 25 24 24 24 -2z m-4507 -145 c3 -11 19 -25 35 -31 l30 -12 -32 -15
c-18 -10 -32 -25 -34 -38 -2 -13 -7 -23 -12 -23 -5 0 -10 10 -12 23 -2 13 -16
28 -34 38 l-32 15 30 12 c16 6 32 20 35 31 3 12 9 21 13 21 4 0 10 -9 13 -21z
m-7913 -94 l22 -7 -23 -12 c-13 -6 -29 -21 -35 -34 l-11 -22 -11 25 c-6 13
-23 27 -38 31 l-26 7 30 13 c20 8 34 22 38 40 l7 26 13 -30 c7 -16 22 -33 34
-37z m1194 0 c4 -15 16 -27 31 -31 32 -8 32 -20 1 -28 -14 -3 -28 -17 -34 -33
l-10 -28 -11 28 c-6 15 -23 32 -38 38 l-28 11 28 10 c16 6 30 20 33 34 8 31
20 31 28 -1z m-3847 -78 c9 -9 35 -22 57 -29 l41 -11 -30 -7 c-55 -12 -74 -29
-88 -76 l-13 -46 -12 39 c-14 48 -35 68 -82 81 l-35 9 30 8 c51 13 74 33 86
77 l12 43 9 -35 c5 -19 17 -43 25 -53z m5390 -110 l36 -14 -29 -7 c-40 -10
-52 -22 -60 -59 l-7 -32 -10 30 c-14 42 -24 53 -60 61 l-31 7 37 14 c26 11 40
24 49 49 l12 34 14 -34 c9 -24 24 -39 49 -49z m1324 -39 l32 -11 -34 -11 c-25
-8 -37 -19 -44 -43 l-11 -33 -13 35 c-9 26 -20 37 -44 43 l-32 8 33 12 c23 8
36 21 44 43 l11 31 13 -31 c9 -21 24 -36 45 -43z m5312 -25 l29 -6 -31 -13
c-21 -9 -36 -25 -43 -46 l-12 -33 -8 31 c-5 22 -17 35 -39 44 l-31 13 31 13
c20 8 33 23 37 40 l7 28 16 -33 c10 -22 24 -34 44 -38z m10901 -216 c28 -14
29 -16 8 -16 -14 -1 -29 -13 -41 -32 l-19 -30 -6 25 c-4 15 -17 28 -33 33
l-28 10 30 14 c19 9 32 24 34 39 l4 25 10 -26 c6 -15 24 -34 41 -42z m-15922
-35 l33 -8 -33 -12 c-23 -8 -36 -21 -44 -44 l-12 -33 -8 31 c-5 20 -19 36 -40
46 -24 12 -28 17 -14 17 26 1 56 30 57 55 0 17 4 14 15 -11 10 -23 23 -35 46
-41z m8160 1 c6 -7 20 -13 32 -13 18 0 16 -3 -11 -20 -18 -11 -33 -27 -33 -36
0 -11 -8 -7 -29 15 -16 17 -35 31 -43 32 -7 1 -2 4 12 8 14 4 32 20 40 36 12
26 15 28 18 10 2 -11 9 -26 14 -32z m-22690 -69 l23 -7 -28 -9 c-16 -6 -29
-19 -33 -34 l-6 -25 -19 30 c-12 20 -27 31 -41 31 -20 1 -18 3 9 15 21 9 35
23 39 41 l7 26 13 -30 c7 -16 23 -33 36 -38z m-3014 -6 c8 -10 22 -18 31 -19
14 0 14 -1 1 -6 -27 -10 -50 -36 -51 -57 0 -17 -4 -14 -15 11 -9 21 -24 35
-40 39 l-26 7 29 12 c19 8 33 23 38 41 7 25 9 26 13 9 2 -11 11 -28 20 -37z
m5387 -78 c8 0 15 -4 15 -10 0 -5 -7 -10 -15 -10 -8 0 -24 -14 -34 -31 -19
-31 -19 -31 -23 -8 -2 15 -15 30 -33 38 -26 13 -27 16 -10 19 29 6 45 22 45
46 0 18 3 16 20 -11 11 -18 27 -33 35 -33z m-3607 -20 c27 -12 27 -12 5 -21
-12 -4 -28 -20 -36 -35 l-14 -27 -7 26 c-3 15 -17 29 -33 35 l-28 10 27 10
c17 7 30 22 34 39 l7 28 9 -26 c5 -14 21 -32 36 -39z m7523 -126 c9 -9 32 -19
50 -23 l34 -8 -42 -12 c-42 -12 -58 -29 -73 -80 l-7 -26 -8 30 c-10 41 -31 62
-74 76 l-36 12 40 11 c33 9 43 18 60 54 l20 43 10 -30 c5 -17 17 -38 26 -47z
m-551 -29 c16 -8 39 -15 52 -16 17 0 13 -4 -16 -15 -53 -19 -64 -30 -78 -77
l-12 -40 -9 34 c-11 44 -31 66 -76 80 l-36 12 35 10 c47 12 68 33 76 76 l7 36
15 -43 c9 -28 23 -47 42 -57z m20887 -51 l26 -7 -27 -14 c-15 -8 -31 -24 -35
-36 -9 -22 -9 -22 -21 5 -7 14 -24 30 -39 34 l-26 7 25 6 c14 4 31 20 39 36
l14 30 10 -28 c5 -17 18 -29 34 -33z m-14062 -20 c32 -8 32 -20 0 -28 -19 -5
-27 -15 -32 -38 l-6 -31 -16 34 c-10 21 -25 35 -39 37 -29 4 -29 20 1 24 14 2
27 15 37 37 l14 33 8 -31 c6 -21 16 -33 33 -37z m-16056 -97 l30 -11 -30 -13
c-18 -8 -35 -25 -42 -42 l-11 -30 -13 30 c-7 17 -25 35 -42 42 l-30 13 30 11
c19 7 35 23 42 42 l11 30 13 -30 c8 -18 25 -35 42 -42z m27307 -33 c31 -8 31
-20 -1 -28 -16 -4 -27 -16 -31 -32 l-7 -26 -12 29 c-7 17 -23 34 -36 38 l-24
8 24 4 c14 3 28 16 35 34 l11 30 8 -26 c5 -14 19 -28 33 -31z m-12904 16 c6
-19 19 -32 34 -36 31 -8 31 -20 -1 -28 -15 -4 -27 -16 -31 -31 -3 -14 -10 -25
-14 -25 -4 0 -11 11 -14 25 -4 15 -16 27 -31 31 -32 8 -32 20 0 28 18 5 27 15
32 36 7 38 11 38 25 0z m-5422 -20 c1 -26 27 -51 67 -65 32 -11 35 -14 18 -20
-11 -4 -30 -11 -43 -16 -21 -8 -30 -23 -47 -74 -6 -17 -9 -14 -20 18 -15 43
-36 62 -80 72 l-30 7 35 8 c42 10 80 51 80 88 0 21 2 24 10 12 5 -8 10 -22 10
-30z m11135 -36 c32 -8 32 -20 0 -28 -19 -5 -27 -15 -32 -38 l-6 -31 -16 34
c-10 20 -26 36 -41 40 l-25 6 28 12 c17 7 32 23 39 43 l12 33 8 -32 c6 -23 16
-35 33 -39z m3530 -90 l26 -6 -30 -19 c-17 -10 -33 -30 -37 -45 l-7 -26 -13
31 c-8 19 -26 37 -45 45 l-31 13 32 6 c23 5 35 15 43 37 l11 29 12 -29 c8 -18
23 -32 39 -36z m-19619 -30 l26 -7 -30 -13 c-20 -8 -34 -22 -38 -40 l-7 -26
-13 30 c-8 20 -22 34 -40 38 l-26 7 30 13 c20 8 34 22 38 40 l7 26 13 -30 c8
-20 22 -34 40 -38z m7976 -61 c7 -6 27 -15 43 -20 l30 -10 -32 -7 c-35 -8 -63
-39 -63 -69 0 -10 -4 -15 -10 -12 -5 3 -10 15 -10 25 0 23 -45 60 -74 61 -15
0 -11 4 14 13 25 9 41 24 54 51 l20 40 8 -31 c4 -18 14 -36 20 -41z m-5207
-33 c24 0 17 -17 -9 -24 -15 -4 -26 -16 -31 -33 l-7 -28 -13 31 c-7 17 -23 35
-36 39 l-24 8 24 4 c14 3 28 16 34 33 l11 29 18 -30 c10 -16 25 -29 33 -29z
m-535 -15 l22 -7 -23 -12 c-13 -6 -28 -21 -34 -33 -11 -21 -11 -20 -27 8 -11
18 -25 29 -40 29 -20 1 -19 3 9 15 21 9 35 23 39 41 l7 26 13 -30 c7 -16 22
-33 34 -37z m5301 -168 c16 -6 29 -14 29 -17 0 -3 -13 -11 -29 -17 -21 -8 -33
-21 -39 -44 -10 -34 -11 -33 -27 17 -3 9 -19 21 -35 27 -33 12 -40 27 -13 27
22 0 53 29 53 50 0 32 15 31 23 0 6 -23 17 -36 38 -43z m-7603 -1081 c26 -14
26 -15 4 -16 -14 0 -29 -12 -42 -32 -16 -27 -20 -29 -20 -12 0 26 -18 44 -44
44 -17 0 -15 4 12 20 20 13 32 28 32 42 1 22 2 22 16 -4 8 -15 27 -34 42 -42z
m12168 -5560 c348 -73 639 -228 888 -474 205 -202 349 -432 439 -703 60 -179
110 -496 76 -485 -8 3 -147 42 -309 86 -162 45 -745 209 -1295 365 -550 156
-1115 315 -1255 355 -140 39 -279 78 -307 86 -29 8 -53 17 -53 21 0 20 129
174 229 273 136 134 261 226 421 309 192 99 372 157 578 186 153 22 435 13
588 -19z m4276 -1688 l1 -73 7 65 7 65 1 -62 c1 -35 7 -63 12 -63 6 0 10 11
10 25 0 42 27 29 35 -17 4 -24 10 -35 12 -25 5 21 23 23 23 2 0 -21 28 -19 33
3 3 9 5 -9 6 -40 l1 -58 35 0 35 0 0 -55 c0 -30 5 -55 10 -55 6 0 10 7 10 15
0 8 5 15 10 15 6 0 10 -7 10 -15 0 -21 27 -19 34 3 3 9 4 -18 1 -61 -2 -46 0
-75 6 -72 5 4 9 31 9 61 0 41 4 54 15 54 11 0 15 -12 15 -51 0 -30 -4 -48 -10
-44 -6 3 -7 -1 -4 -9 3 -9 15 -16 25 -16 14 0 19 8 21 33 l1 32 4 -32 c3 -19
10 -33 18 -33 19 0 24 -21 15 -69 -6 -36 -5 -42 9 -39 11 2 18 18 22 48 l6 45
1 -47 c2 -34 6 -48 16 -48 8 0 17 6 20 13 3 6 4 -16 3 -51 -2 -54 0 -62 16
-62 14 0 18 -6 15 -27 l-3 -28 -140 1 c-137 1 -444 30 -456 42 -3 4 0 59 7
122 7 63 16 210 19 325 7 245 9 255 35 255 18 0 20 -7 22 -72z m495 -450 c-3
-8 -6 -5 -6 6 -1 11 2 17 5 13 3 -3 4 -12 1 -19z m114 -180 c0 -10 2 -10 6 0
2 6 11 12 18 12 10 0 11 -8 6 -27 -7 -25 -12 -28 -58 -31 l-50 -3 5 31 c4 27
8 30 38 30 20 0 34 -5 35 -12z"/>
</g>
</svg>
