<?xml version="1.0" standalone="no"?>
<!DOCTYPE svg PUBLIC "-//W3C//DTD SVG 20010904//EN"
 "http://www.w3.org/TR/2001/REC-SVG-20010904/DTD/svg10.dtd">
<svg version="1.0" xmlns="http://www.w3.org/2000/svg"
 width="112.000000pt" height="113.000000pt" viewBox="0 0 112.000000 113.000000"
 preserveAspectRatio="xMidYMid meet">

<g transform="translate(0.000000,113.000000) scale(0.100000,-0.100000)"
fill="#000000" stroke="none">
<path d="M137 1041 c-6 -2 -20 -10 -29 -19 -17 -14 -18 -43 -16 -371 l3 -356
5 350 c3 193 6 307 8 253 l2 -96 73 -22 c39 -12 99 -24 132 -27 38 -3 65 -11
73 -21 11 -14 12 -13 12 5 0 12 -5 24 -10 26 -6 3 -5 4 2 3 28 -6 19 -51 -22
-106 -52 -70 -65 -117 -50 -180 15 -61 66 -114 132 -136 60 -20 61 -43 3 -62
-57 -19 -63 -28 -35 -57 31 -33 52 -32 95 6 27 24 35 39 35 64 0 29 2 32 25
27 36 -6 34 -50 -5 -87 -38 -36 -38 -59 0 -75 24 -10 36 -10 60 0 l30 13 -6
77 -7 78 44 7 c66 11 103 29 153 75 57 53 80 110 74 186 -4 49 -10 62 -37 86
-17 15 -27 28 -21 28 6 0 22 -11 35 -25 13 -15 26 -22 29 -17 3 5 23 6 46 2
l40 -7 2 166 c2 91 5 -23 8 -254 l5 -420 3 426 c2 404 1 427 -17 443 -16 15
-60 17 -440 19 -231 1 -427 0 -434 -2z m636 -18 c-117 -2 -309 -2 -425 0 -117
1 -22 2 212 2 234 0 329 -1 213 -2z m-249 -87 c35 -14 61 -61 53 -93 -3 -12
-5 -9 -6 10 -1 25 -4 27 -42 27 -29 0 -38 -3 -33 -12 4 -7 -2 -5 -14 6 -18 16
-24 17 -38 6 -8 -8 -13 -22 -11 -32 3 -10 1 -16 -4 -12 -5 3 -9 12 -9 19 0 9
-9 14 -22 12 -16 -1 -22 3 -20 13 2 8 0 11 -5 7 -4 -5 -8 -27 -9 -50 -1 -39
-3 -42 -32 -45 -49 -5 -146 27 -130 43 3 4 29 7 57 9 45 2 56 7 94 43 63 63
108 75 171 49z m51 -6 c10 -11 16 -20 13 -20 -3 0 -13 9 -23 20 -10 11 -16 20
-13 20 3 0 13 -9 23 -20z m-225 -23 c0 -2 -10 -12 -22 -23 l-23 -19 19 23 c18
21 26 27 26 19z m-77 -44 c-13 -2 -33 -2 -45 0 -13 2 -3 4 22 4 25 0 35 -2 23
-4z m334 -45 c-2 -13 -4 -5 -4 17 -1 22 1 32 4 23 2 -10 2 -28 0 -40z m-92 23
c4 -7 -46 -41 -62 -41 -10 0 0 25 15 36 20 16 39 18 47 5z m70 -96 c-17 -40
-15 -54 4 -32 9 11 22 12 57 6 24 -5 66 -11 92 -15 26 -3 51 -8 55 -11 4 -3
15 1 23 8 8 6 17 9 21 5 3 -3 1 -6 -6 -6 -9 0 -11 -8 -7 -26 l7 -26 -63 8
c-35 5 -98 9 -140 9 -43 0 -78 3 -78 7 0 14 42 119 46 115 2 -2 -3 -21 -11
-42z m-292 28 c-7 -2 -19 -2 -25 0 -7 3 -2 5 12 5 14 0 19 -2 13 -5z m163
-120 c17 -3 40 0 52 6 15 8 23 7 31 -2 7 -9 29 -12 69 -9 33 2 93 -1 133 -8
72 -12 73 -13 51 -30 -16 -14 -20 -25 -16 -51 17 -117 -175 -183 -258 -89 -22
23 -28 40 -28 75 0 24 5 47 10 50 16 10 12 25 -5 19 -18 -7 -94 3 -114 16 -12
7 -13 11 -1 25 7 9 20 13 29 10 9 -4 30 -9 47 -12z m408 -45 c30 -42 15 -112
-40 -183 -33 -43 -45 -39 -14 5 30 43 38 111 15 134 -16 16 -16 18 -1 35 9 10
13 21 9 24 -3 4 -1 7 5 7 6 0 18 -10 26 -22z m-345 -354 c-7 -8 -22 -20 -33
-25 -13 -6 -11 -2 7 11 27 22 38 48 15 34 -10 -6 -10 -4 0 7 6 7 13 22 14 34
0 11 3 5 5 -13 3 -18 -1 -40 -8 -48z m77 -35 c-20 -21 -36 -36 -36 -33 0 4 14
22 30 41 21 23 31 45 32 71 l1 37 4 -38 c4 -33 -1 -44 -31 -78z m-154 34 c-10
-4 -10 -8 0 -21 12 -15 11 -16 -4 -3 -19 14 -15 32 5 30 8 0 8 -2 -1 -6z m195
-45 c-3 -8 -6 -5 -6 6 -1 11 2 17 5 13 3 -3 4 -12 1 -19z m-24 -35 c-7 -2 -19
-2 -25 0 -7 3 -2 5 12 5 14 0 19 -2 13 -5z"/>
<path d="M535 910 c10 -11 20 -20 23 -20 3 0 -3 9 -13 20 -10 11 -20 20 -23
20 -3 0 3 -9 13 -20z"/>
<path d="M1021 131 c-1 -8 -9 -24 -18 -35 -16 -20 -16 -20 6 0 13 12 21 28 18
35 -4 11 -6 11 -6 0z"/>
<path d="M90 123 c0 -5 10 -18 23 -29 l22 -19 -20 25 c-11 14 -21 27 -22 29
-2 2 -3 0 -3 -6z"/>
<path d="M803 73 c31 -2 83 -2 115 0 31 2 5 3 -58 3 -63 0 -89 -1 -57 -3z"/>
</g>
</svg>
